<mxfile host="app.diagrams.net" agent="Mozilla/5.0 (Windows NT 10.0; Win64; x64; rv:141.0) Gecko/20100101 Firefox/141.0" version="28.1.1">
  <diagram name="Seite-1" id="oFE7gOLAKZUPZWjpKmOB">
    <mxGraphModel dx="2066" dy="1123" grid="1" gridSize="10" guides="1" tooltips="1" connect="1" arrows="1" fold="1" page="1" pageScale="1" pageWidth="827" pageHeight="1169" math="0" shadow="0">
      <root>
        <mxCell id="0" />
        <mxCell id="1" parent="0" />
        <mxCell id="JKRmbmj920cZNDINMS4b-1" value="adf" style="whiteSpace=wrap;html=1;aspect=fixed;" parent="1" vertex="1">
          <mxGeometry x="180" y="180" width="80" height="80" as="geometry" />
        </mxCell>
        <mxCell id="JKRmbmj920cZNDINMS4b-2" value="DB" style="shape=cylinder3;whiteSpace=wrap;html=1;boundedLbl=1;backgroundOutline=1;size=15;" parent="1" vertex="1">
          <mxGeometry x="510" y="150" width="64" height="80" as="geometry" />
        </mxCell>
        <mxCell id="JKRmbmj920cZNDINMS4b-3" style="edgeStyle=orthogonalEdgeStyle;rounded=0;orthogonalLoop=1;jettySize=auto;html=1;entryX=0;entryY=0.5;entryDx=0;entryDy=0;entryPerimeter=0;" parent="1" source="JKRmbmj920cZNDINMS4b-1" target="JKRmbmj920cZNDINMS4b-2" edge="1">
          <mxGeometry relative="1" as="geometry" />
        </mxCell>
      </root>
    </mxGraphModel>
  </diagram>
</mxfile>
